<?xml version="1.0" encoding="UTF-8"?>
<svg xmlns="http://www.w3.org/2000/svg" xmlns:xlink="http://www.w3.org/1999/xlink" width="48px" height="48px" viewBox="0 0 48 48" version="1.1">
<g id="surface1">
<path style=" stroke:none;fill-rule:nonzero;fill:rgb(100%,17.647059%,12.54902%);fill-opacity:1;" d="M 20.121094 43.578125 L 5.464844 35.121094 C 5.25 34.984375 5.085938 34.90625 5.085938 34.628906 L 5.085938 9.089844 C 5.085938 8.882812 5.210938 8.746094 5.328125 8.683594 L 12.761719 4.398438 C 13.003906 4.257812 13.207031 4.257812 13.4375 4.398438 L 20.820312 8.644531 C 21.113281 8.808594 21.128906 9.027344 21.128906 9.214844 L 21.128906 25.03125 L 27.292969 21.484375 L 27.292969 13.398438 C 27.292969 13.117188 27.417969 12.953125 27.722656 12.777344 L 35.085938 8.542969 C 35.261719 8.441406 35.402344 8.441406 35.582031 8.542969 L 43.082031 12.863281 C 43.320312 13.003906 43.347656 13.167969 43.347656 13.410156 L 43.347656 21.8125 C 43.347656 22.082031 43.285156 22.21875 43.015625 22.386719 L 35.9375 26.453125 L 35.9375 34.511719 C 35.9375 34.832031 35.859375 34.957031 35.582031 35.121094 L 20.871094 43.578125 C 20.59375 43.730469 20.402344 43.730469 20.121094 43.578125 Z M 19.894531 42.011719 L 19.894531 34.917969 L 12.878906 30.953125 C 12.648438 30.8125 12.484375 30.710938 12.484375 30.367188 L 12.484375 13.804688 L 6.304688 10.257812 L 6.304688 34.195312 Z M 34.714844 34.195312 L 34.714844 27.152344 L 21.128906 34.917969 L 21.128906 42.011719 Z M 34.066406 26.105469 L 27.914062 22.539062 L 14.363281 30.355469 L 20.492188 33.839844 Z M 19.894531 25.730469 L 19.894531 10.246094 L 13.730469 13.804688 L 13.730469 29.289062 Z M 34.714844 25.015625 L 34.714844 18 L 28.539062 14.441406 L 28.539062 21.484375 Z M 42.113281 21.484375 L 42.113281 14.441406 L 35.9375 18 L 35.9375 25.015625 Z M 35.328125 16.917969 L 41.480469 13.371094 L 35.328125 9.828125 L 29.160156 13.371094 Z M 19.261719 9.179688 L 13.09375 5.632812 L 6.941406 9.179688 L 13.09375 12.738281 Z M 19.261719 9.179688 "/>
</g>
</svg>
