<?xml version="1.0" encoding="UTF-8"?>
<svg xmlns="http://www.w3.org/2000/svg" xmlns:xlink="http://www.w3.org/1999/xlink" width="48px" height="26px" viewBox="0 0 48 26" version="1.1">
<defs>
<clipPath id="clip1">
  <path d="M 0.675781 12.988281 C 0.675781 19.785156 11.121094 25.296875 24.007812 25.296875 C 36.890625 25.296875 47.339844 19.785156 47.339844 12.988281 C 47.339844 6.1875 36.890625 0.675781 24.007812 0.675781 C 11.121094 0.675781 0.675781 6.1875 0.675781 12.988281 "/>
</clipPath>
<radialGradient id="radial0" gradientUnits="userSpaceOnUse" cx="0" cy="0" fx="0" fy="0" r="1" gradientTransform="matrix(30.637797,0,0,30.727556,14.683546,5.00465)">
<stop offset="0" style="stop-color:rgb(68.235294%,69.803922%,83.529412%);stop-opacity:1;"/>
<stop offset="0.3" style="stop-color:rgb(68.235294%,69.803922%,83.529412%);stop-opacity:1;"/>
<stop offset="0.75" style="stop-color:rgb(28.235294%,29.803922%,53.72549%);stop-opacity:1;"/>
<stop offset="1" style="stop-color:rgb(28.235294%,29.803922%,53.72549%);stop-opacity:1;"/>
</radialGradient>
</defs>
<g id="surface1">
<g clip-path="url(#clip1)" clip-rule="nonzero">
<path style=" stroke:none;fill-rule:nonzero;fill:url(#radial0);" d="M 0.675781 12.988281 C 0.675781 19.785156 11.121094 25.296875 24.007812 25.296875 C 36.890625 25.296875 47.339844 19.785156 47.339844 12.988281 C 47.339844 6.1875 36.890625 0.675781 24.007812 0.675781 C 11.121094 0.675781 0.675781 6.1875 0.675781 12.988281 "/>
</g>
<path style=" stroke:none;fill-rule:nonzero;fill:rgb(46.666667%,48.235294%,70.19608%);fill-opacity:1;" d="M 24.007812 24.382812 C 36.390625 24.382812 46.425781 19.28125 46.425781 12.988281 C 46.425781 6.691406 36.390625 1.589844 24.007812 1.589844 C 11.625 1.589844 1.585938 6.691406 1.585938 12.988281 C 1.585938 19.28125 11.625 24.382812 24.007812 24.382812 "/>
<path style=" stroke:none;fill-rule:nonzero;fill:rgb(0%,0%,0%);fill-opacity:1;" d="M 13.351562 14.398438 C 14.371094 14.398438 15.128906 14.210938 15.609375 13.839844 C 16.085938 13.472656 16.414062 12.835938 16.585938 11.949219 C 16.746094 11.117188 16.6875 10.539062 16.40625 10.226562 C 16.117188 9.90625 15.496094 9.746094 14.558594 9.746094 L 12.929688 9.746094 L 12.027344 14.398438 Z M 8.03125 20.132812 C 7.953125 20.132812 7.882812 20.097656 7.835938 20.039062 C 7.785156 19.980469 7.765625 19.90625 7.78125 19.832031 L 10.171875 7.496094 C 10.195312 7.375 10.300781 7.289062 10.421875 7.289062 L 15.574219 7.289062 C 17.191406 7.289062 18.398438 7.730469 19.15625 8.601562 C 19.917969 9.476562 20.152344 10.695312 19.855469 12.234375 C 19.730469 12.859375 19.523438 13.441406 19.234375 13.960938 C 18.945312 14.480469 18.558594 14.964844 18.09375 15.394531 C 17.535156 15.917969 16.902344 16.296875 16.21875 16.519531 C 15.542969 16.742188 14.675781 16.855469 13.640625 16.855469 L 11.554688 16.855469 L 10.957031 19.929688 C 10.933594 20.046875 10.832031 20.132812 10.710938 20.132812 Z M 8.03125 20.132812 "/>
<path style=" stroke:none;fill-rule:nonzero;fill:rgb(100%,100%,100%);fill-opacity:1;" d="M 13.140625 10 L 14.558594 10 C 15.691406 10 16.082031 10.246094 16.21875 10.394531 C 16.4375 10.640625 16.480469 11.164062 16.339844 11.898438 C 16.179688 12.726562 15.882812 13.308594 15.457031 13.636719 C 15.019531 13.976562 14.3125 14.144531 13.351562 14.144531 L 12.335938 14.144531 Z M 15.574219 7.035156 L 10.421875 7.035156 C 10.179688 7.035156 9.96875 7.207031 9.921875 7.445312 L 7.53125 19.78125 C 7.503906 19.929688 7.542969 20.085938 7.640625 20.203125 C 7.734375 20.320312 7.878906 20.386719 8.03125 20.386719 L 10.710938 20.386719 C 10.953125 20.386719 11.160156 20.214844 11.207031 19.976562 L 11.761719 17.109375 L 13.640625 17.109375 C 14.703125 17.109375 15.59375 16.992188 16.296875 16.761719 C 17.015625 16.527344 17.679688 16.128906 18.265625 15.578125 C 18.753906 15.132812 19.152344 14.628906 19.453125 14.085938 C 19.757812 13.539062 19.976562 12.933594 20.101562 12.28125 C 20.414062 10.664062 20.160156 9.371094 19.34375 8.433594 C 18.539062 7.507812 17.269531 7.035156 15.574219 7.035156 M 11.722656 14.652344 L 13.351562 14.652344 C 14.433594 14.652344 15.238281 14.449219 15.765625 14.039062 C 16.292969 13.632812 16.652344 12.949219 16.835938 11.996094 C 17.011719 11.078125 16.933594 10.433594 16.59375 10.054688 C 16.253906 9.679688 15.574219 9.492188 14.558594 9.492188 L 12.722656 9.492188 L 11.722656 14.652344 M 15.574219 7.542969 C 17.121094 7.542969 18.253906 7.953125 18.964844 8.769531 C 19.675781 9.582031 19.886719 10.722656 19.605469 12.183594 C 19.488281 12.789062 19.289062 13.335938 19.011719 13.835938 C 18.734375 14.335938 18.371094 14.792969 17.921875 15.207031 C 17.386719 15.707031 16.792969 16.066406 16.140625 16.28125 C 15.484375 16.492188 14.652344 16.601562 13.640625 16.601562 L 11.34375 16.601562 L 10.710938 19.878906 L 8.03125 19.878906 L 10.421875 7.542969 L 15.574219 7.542969 "/>
<path style=" stroke:none;fill-rule:nonzero;fill:rgb(0%,0%,0%);fill-opacity:1;" d="M 25.996094 16.855469 C 25.921875 16.855469 25.851562 16.820312 25.800781 16.761719 C 25.753906 16.703125 25.734375 16.625 25.75 16.550781 L 26.804688 11.09375 C 26.90625 10.574219 26.882812 10.203125 26.734375 10.042969 C 26.648438 9.949219 26.378906 9.785156 25.585938 9.785156 L 23.671875 9.785156 L 22.34375 16.648438 C 22.320312 16.765625 22.214844 16.855469 22.09375 16.855469 L 19.4375 16.855469 C 19.359375 16.855469 19.289062 16.820312 19.242188 16.761719 C 19.191406 16.703125 19.171875 16.625 19.1875 16.550781 L 21.578125 4.214844 C 21.601562 4.097656 21.703125 4.011719 21.828125 4.011719 L 24.484375 4.011719 C 24.558594 4.011719 24.632812 4.042969 24.679688 4.101562 C 24.726562 4.160156 24.746094 4.238281 24.734375 4.3125 L 24.15625 7.289062 L 26.21875 7.289062 C 27.785156 7.289062 28.851562 7.566406 29.472656 8.136719 C 30.105469 8.722656 30.300781 9.652344 30.058594 10.90625 L 28.945312 16.648438 C 28.921875 16.765625 28.820312 16.855469 28.699219 16.855469 Z M 25.996094 16.855469 "/>
<path style=" stroke:none;fill-rule:nonzero;fill:rgb(100%,100%,100%);fill-opacity:1;" d="M 24.484375 3.757812 L 21.828125 3.757812 C 21.582031 3.757812 21.375 3.929688 21.328125 4.167969 L 18.9375 16.503906 C 18.910156 16.652344 18.949219 16.804688 19.046875 16.921875 C 19.140625 17.039062 19.285156 17.109375 19.4375 17.109375 L 22.09375 17.109375 C 22.335938 17.109375 22.542969 16.933594 22.589844 16.695312 L 23.878906 10.039062 L 25.585938 10.039062 C 26.378906 10.039062 26.542969 10.210938 26.550781 10.21875 C 26.597656 10.269531 26.660156 10.507812 26.558594 11.042969 L 25.5 16.503906 C 25.472656 16.652344 25.511719 16.804688 25.605469 16.921875 C 25.703125 17.039062 25.84375 17.109375 25.996094 17.109375 L 28.699219 17.109375 C 28.941406 17.109375 29.148438 16.933594 29.195312 16.695312 L 30.304688 10.957031 C 30.566406 9.609375 30.34375 8.597656 29.644531 7.953125 C 28.972656 7.335938 27.851562 7.035156 26.21875 7.035156 L 24.464844 7.035156 L 24.980469 4.359375 C 25.011719 4.210938 24.972656 4.058594 24.875 3.941406 C 24.777344 3.824219 24.636719 3.757812 24.484375 3.757812 M 24.484375 4.265625 L 23.847656 7.542969 L 26.21875 7.542969 C 27.707031 7.542969 28.734375 7.804688 29.300781 8.324219 C 29.867188 8.847656 30.035156 9.691406 29.808594 10.859375 L 28.699219 16.601562 L 25.996094 16.601562 L 27.054688 11.140625 C 27.175781 10.519531 27.128906 10.097656 26.921875 9.871094 C 26.710938 9.644531 26.269531 9.53125 25.585938 9.53125 L 23.464844 9.53125 L 22.09375 16.601562 L 19.4375 16.601562 L 21.828125 4.265625 L 24.484375 4.265625 "/>
<path style=" stroke:none;fill-rule:nonzero;fill:rgb(0%,0%,0%);fill-opacity:1;" d="M 34.265625 14.398438 C 35.28125 14.398438 36.042969 14.210938 36.523438 13.839844 C 37 13.472656 37.328125 12.835938 37.5 11.949219 C 37.660156 11.117188 37.597656 10.539062 37.316406 10.226562 C 37.03125 9.90625 36.410156 9.746094 35.46875 9.746094 L 33.84375 9.746094 L 32.941406 14.398438 Z M 28.941406 20.132812 C 28.867188 20.132812 28.796875 20.097656 28.746094 20.039062 C 28.699219 19.980469 28.679688 19.90625 28.695312 19.832031 L 31.085938 7.496094 C 31.109375 7.375 31.210938 7.289062 31.332031 7.289062 L 36.484375 7.289062 C 38.105469 7.289062 39.308594 7.730469 40.066406 8.601562 C 40.828125 9.476562 41.0625 10.695312 40.765625 12.234375 C 40.644531 12.859375 40.4375 13.441406 40.148438 13.960938 C 39.855469 14.480469 39.472656 14.964844 39.007812 15.394531 C 38.449219 15.917969 37.816406 16.296875 37.128906 16.519531 C 36.453125 16.742188 35.585938 16.855469 34.550781 16.855469 L 32.464844 16.855469 L 31.871094 19.929688 C 31.847656 20.046875 31.742188 20.132812 31.621094 20.132812 Z M 28.941406 20.132812 "/>
<path style=" stroke:none;fill-rule:nonzero;fill:rgb(100%,100%,100%);fill-opacity:1;" d="M 34.050781 10 L 35.46875 10 C 36.601562 10 36.996094 10.246094 37.128906 10.394531 C 37.351562 10.640625 37.394531 11.164062 37.25 11.898438 C 37.089844 12.726562 36.792969 13.308594 36.367188 13.636719 C 35.933594 13.976562 35.226562 14.144531 34.265625 14.144531 L 33.25 14.144531 Z M 36.484375 7.035156 L 31.332031 7.035156 C 31.089844 7.035156 30.882812 7.207031 30.835938 7.445312 L 28.445312 19.78125 C 28.417969 19.929688 28.457031 20.085938 28.550781 20.203125 C 28.648438 20.320312 28.792969 20.386719 28.941406 20.386719 L 31.621094 20.386719 C 31.863281 20.386719 32.074219 20.214844 32.117188 19.976562 L 32.675781 17.109375 L 34.550781 17.109375 C 35.613281 17.109375 36.507812 16.992188 37.207031 16.761719 C 37.929688 16.527344 38.59375 16.128906 39.179688 15.578125 C 39.664062 15.132812 40.066406 14.628906 40.367188 14.085938 C 40.671875 13.539062 40.886719 12.933594 41.015625 12.28125 C 41.328125 10.664062 41.074219 9.371094 40.257812 8.433594 C 39.449219 7.507812 38.179688 7.035156 36.484375 7.035156 M 32.632812 14.652344 L 34.265625 14.652344 C 35.34375 14.652344 36.148438 14.449219 36.675781 14.039062 C 37.207031 13.632812 37.5625 12.949219 37.75 11.996094 C 37.925781 11.078125 37.84375 10.433594 37.507812 10.054688 C 37.167969 9.679688 36.488281 9.492188 35.46875 9.492188 L 33.636719 9.492188 L 32.632812 14.652344 M 36.484375 7.542969 C 38.035156 7.542969 39.164062 7.953125 39.875 8.769531 C 40.585938 9.582031 40.800781 10.722656 40.519531 12.183594 C 40.402344 12.789062 40.203125 13.335938 39.925781 13.835938 C 39.648438 14.335938 39.285156 14.792969 38.835938 15.207031 C 38.300781 15.707031 37.707031 16.066406 37.050781 16.28125 C 36.398438 16.492188 35.566406 16.601562 34.550781 16.601562 L 32.257812 16.601562 L 31.621094 19.878906 L 28.941406 19.878906 L 31.332031 7.542969 L 36.484375 7.542969 "/>
</g>
</svg>
